# xmcd
#
# Track frame offsets: 
#        225
#        26728
#        40295
#        90120
#        96518
#        109823
#        126021
#        139690
#        176072
#        194572
#        217836
#
# Disc length: 3468 seconds
#
# Revision: 0
# Processed by: cddbd v1.5.2PL0 Copyright (c) Steve Scherf et al.
# Submitted via: ExactAudioCopy v0.95a5
#
DISCID=970d890b
DTITLE=Desolation Iced - Season of Darkness
DYEAR=1997
DGENRE=Industrial
TTITLE0=Last Man Standing
TTITLE1=Locked Down
TTITLE2=Cold Dead Hand
TTITLE3=Lisenger Pattern Experiment
TTITLE4=Overthrow
TTITLE5=Unkept Promise
TTITLE6=Mold
TTITLE7=Fogged Valley
TTITLE8=Inside (Minimal Theremin Mix)
TTITLE9=Overthrow (Remix)
TTITLE10=Season of Darkness
EXTD=
EXTT0=
EXTT1=
EXTT2=
EXTT3=
EXTT4=
EXTT5=
EXTT6=
EXTT7=
EXTT8=
EXTT9=
EXTT10=
PLAYORDER=
